<?xml version="1.0" encoding="UTF-8"?>
<svg width="435px" height="324px" viewBox="0 0 435 324" version="1.1" xmlns="http://www.w3.org/2000/svg" xmlns:xlink="http://www.w3.org/1999/xlink">
    <!-- Generator: Sketch 63 (92445) - https://sketch.com -->
    <title>编组 2备份 3</title>
    <desc>Created with Sketch.</desc>
    <defs>
        <filter x="-21.3%" y="-22.5%" width="142.6%" height="145.0%" filterUnits="objectBoundingBox" id="filter-1">
            <feOffset dx="0" dy="0" in="SourceAlpha" result="shadowOffsetOuter1"></feOffset>
            <feGaussianBlur stdDeviation="15" in="shadowOffsetOuter1" result="shadowBlurOuter1"></feGaussianBlur>
            <feColorMatrix values="0 0 0 0 0   0 0 0 0 0   0 0 0 0 0  0 0 0 0.0804742133 0" type="matrix" in="shadowBlurOuter1" result="shadowMatrixOuter1"></feColorMatrix>
            <feMerge>
                <feMergeNode in="shadowMatrixOuter1"></feMergeNode>
                <feMergeNode in="SourceGraphic"></feMergeNode>
            </feMerge>
        </filter>
        <polygon id="path-2" points="0 257 271.923 257 271.923 0.234 0 0.234"></polygon>
    </defs>
    <g id="官网一期" stroke="none" stroke-width="1" fill="none" fill-rule="evenodd">
        <g id="AD-Hub" transform="translate(-1070.000000, -1724.000000)">
            <g id="如何实现营销自动化" transform="translate(0.000000, 1166.000000)">
                <g id="编组-10" transform="translate(455.000000, 558.000000)">
                    <g id="编组-2备份-3" transform="translate(615.000000, 0.000000)">
                        <path d="M3.63677419,68.4971613 C5.64516129,68.4971613 7.27354839,70.1252258 7.27354839,72.1339355 C7.27354839,74.1426452 5.64516129,75.7703871 3.63677419,75.7703871 C1.6283871,75.7703871 1.58983937e-13,74.1426452 1.58983937e-13,72.1339355 C1.58983937e-13,70.1252258 1.6283871,68.4971613 3.63677419,68.4971613 Z M14.1360968,68.4971613 C16.1448065,68.4971613 17.772871,70.1252258 17.772871,72.1339355 C17.772871,74.1426452 16.1448065,75.7703871 14.1360968,75.7703871 C12.1277097,75.7703871 10.4993226,74.1426452 10.4993226,72.1339355 C10.4993226,70.1252258 12.1277097,68.4971613 14.1360968,68.4971613 Z M24.6355484,68.4971613 C26.6442581,68.4971613 28.2723226,70.1252258 28.2723226,72.1339355 C28.2723226,74.1426452 26.6442581,75.7703871 24.6355484,75.7703871 C22.6271613,75.7703871 20.9987742,74.1426452 20.9987742,72.1339355 C20.9987742,70.1252258 22.6271613,68.4971613 24.6355484,68.4971613 Z M35.135,68.4971613 C37.1433871,68.4971613 38.7717742,70.1252258 38.7717742,72.1339355 C38.7717742,74.1426452 37.1433871,75.7703871 35.135,75.7703871 C33.1262903,75.7703871 31.4982258,74.1426452 31.4982258,72.1339355 C31.4982258,70.1252258 33.1262903,68.4971613 35.135,68.4971613 Z M45.6343226,68.4971613 C47.6430323,68.4971613 49.2710968,70.1252258 49.2710968,72.1339355 C49.2710968,74.1426452 47.6430323,75.7703871 45.6343226,75.7703871 C43.6259355,75.7703871 41.9975484,74.1426452 41.9975484,72.1339355 C41.9975484,70.1252258 43.6259355,68.4971613 45.6343226,68.4971613 Z M56.1337742,68.4971613 C58.1424839,68.4971613 59.7705484,70.1252258 59.7705484,72.1339355 C59.7705484,74.1426452 58.1424839,75.7703871 56.1337742,75.7703871 C54.1253871,75.7703871 52.497,74.1426452 52.497,72.1339355 C52.497,70.1252258 54.1253871,68.4971613 56.1337742,68.4971613 Z M3.63677419,57.997871 C5.64516129,57.997871 7.27354839,59.6256129 7.27354839,61.6343226 C7.27354839,63.6430323 5.64516129,65.2710968 3.63677419,65.2710968 C1.6283871,65.2710968 1.58983937e-13,63.6430323 1.58983937e-13,61.6343226 C1.58983937e-13,59.6256129 1.6283871,57.997871 3.63677419,57.997871 Z M14.1360968,57.997871 C16.1448065,57.997871 17.772871,59.6256129 17.772871,61.6343226 C17.772871,63.6430323 16.1448065,65.2710968 14.1360968,65.2710968 C12.1277097,65.2710968 10.4993226,63.6430323 10.4993226,61.6343226 C10.4993226,59.6256129 12.1277097,57.997871 14.1360968,57.997871 Z M24.6355484,57.997871 C26.6442581,57.997871 28.2723226,59.6256129 28.2723226,61.6343226 C28.2723226,63.6430323 26.6442581,65.2710968 24.6355484,65.2710968 C22.6271613,65.2710968 20.9987742,63.6430323 20.9987742,61.6343226 C20.9987742,59.6256129 22.6271613,57.997871 24.6355484,57.997871 Z M35.135,57.997871 C37.1433871,57.997871 38.7717742,59.6256129 38.7717742,61.6343226 C38.7717742,63.6430323 37.1433871,65.2710968 35.135,65.2710968 C33.1262903,65.2710968 31.4982258,63.6430323 31.4982258,61.6343226 C31.4982258,59.6256129 33.1262903,57.997871 35.135,57.997871 Z M45.6343226,57.997871 C47.6430323,57.997871 49.2710968,59.6256129 49.2710968,61.6343226 C49.2710968,63.6430323 47.6430323,65.2710968 45.6343226,65.2710968 C43.6259355,65.2710968 41.9975484,63.6430323 41.9975484,61.6343226 C41.9975484,59.6256129 43.6259355,57.997871 45.6343226,57.997871 Z M56.1337742,57.997871 C58.1424839,57.997871 59.7705484,59.6256129 59.7705484,61.6343226 C59.7705484,63.6430323 58.1424839,65.2710968 56.1337742,65.2710968 C54.1253871,65.2710968 52.497,63.6430323 52.497,61.6343226 C52.497,59.6256129 54.1253871,57.997871 56.1337742,57.997871 Z M3.63677419,47.4982581 C5.64516129,47.4982581 7.27354839,49.1263226 7.27354839,51.1350323 C7.27354839,53.1437419 5.64516129,54.7718065 3.63677419,54.7718065 C1.6283871,54.7718065 1.58983937e-13,53.1437419 1.58983937e-13,51.1350323 C1.58983937e-13,49.1263226 1.6283871,47.4982581 3.63677419,47.4982581 Z M14.1360968,47.4982581 C16.1448065,47.4982581 17.772871,49.1263226 17.772871,51.1350323 C17.772871,53.1437419 16.1448065,54.7718065 14.1360968,54.7718065 C12.1277097,54.7718065 10.4993226,53.1437419 10.4993226,51.1350323 C10.4993226,49.1263226 12.1277097,47.4982581 14.1360968,47.4982581 Z M24.6355484,47.4982581 C26.6442581,47.4982581 28.2723226,49.1263226 28.2723226,51.1350323 C28.2723226,53.1437419 26.6442581,54.7718065 24.6355484,54.7718065 C22.6271613,54.7718065 20.9987742,53.1437419 20.9987742,51.1350323 C20.9987742,49.1263226 22.6271613,47.4982581 24.6355484,47.4982581 Z M35.135,47.4982581 C37.1433871,47.4982581 38.7717742,49.1263226 38.7717742,51.1350323 C38.7717742,53.1437419 37.1433871,54.7718065 35.135,54.7718065 C33.1262903,54.7718065 31.4982258,53.1437419 31.4982258,51.1350323 C31.4982258,49.1263226 33.1262903,47.4982581 35.135,47.4982581 Z M45.6343226,47.4982581 C47.6430323,47.4982581 49.2710968,49.1263226 49.2710968,51.1350323 C49.2710968,53.1437419 47.6430323,54.7718065 45.6343226,54.7718065 C43.6259355,54.7718065 41.9975484,53.1437419 41.9975484,51.1350323 C41.9975484,49.1263226 43.6259355,47.4982581 45.6343226,47.4982581 Z M56.1337742,47.4982581 C58.1424839,47.4982581 59.7705484,49.1263226 59.7705484,51.1350323 C59.7705484,53.1437419 58.1424839,54.7718065 56.1337742,54.7718065 C54.1253871,54.7718065 52.497,53.1437419 52.497,51.1350323 C52.497,49.1263226 54.1253871,47.4982581 56.1337742,47.4982581 Z M3.63677419,36.9989355 C5.64516129,36.9989355 7.27354839,38.627 7.27354839,40.6357097 C7.27354839,42.6444194 5.64516129,44.2721613 3.63677419,44.2721613 C1.6283871,44.2721613 1.58983937e-13,42.6444194 1.58983937e-13,40.6357097 C1.58983937e-13,38.627 1.6283871,36.9989355 3.63677419,36.9989355 Z M45.6343226,36.9989355 C47.6430323,36.9989355 49.2710968,38.627 49.2710968,40.6357097 C49.2710968,42.6444194 47.6430323,44.2721613 45.6343226,44.2721613 C43.6259355,44.2721613 41.9975484,42.6444194 41.9975484,40.6357097 C41.9975484,38.627 43.6259355,36.9989355 45.6343226,36.9989355 Z M24.6355484,36.9989355 C26.6442581,36.9989355 28.2723226,38.627 28.2723226,40.6357097 C28.2723226,42.6444194 26.6442581,44.2721613 24.6355484,44.2721613 C22.6271613,44.2721613 20.9987742,42.6444194 20.9987742,40.6357097 C20.9987742,38.627 22.6271613,36.9989355 24.6355484,36.9989355 Z M56.1337742,36.9989355 C58.1424839,36.9989355 59.7705484,38.627 59.7705484,40.6357097 C59.7705484,42.6444194 58.1424839,44.2721613 56.1337742,44.2721613 C54.1253871,44.2721613 52.497,42.6444194 52.497,40.6357097 C52.497,38.627 54.1253871,36.9989355 56.1337742,36.9989355 Z M14.1360968,36.9989355 C16.1448065,36.9989355 17.772871,38.627 17.772871,40.6357097 C17.772871,42.6444194 16.1448065,44.2721613 14.1360968,44.2721613 C12.1277097,44.2721613 10.4993226,42.6444194 10.4993226,40.6357097 C10.4993226,38.627 12.1277097,36.9989355 14.1360968,36.9989355 Z M35.135,36.9989355 C37.1433871,36.9989355 38.7717742,38.627 38.7717742,40.6357097 C38.7717742,42.6444194 37.1433871,44.2721613 35.135,44.2721613 C33.1262903,44.2721613 31.4982258,42.6444194 31.4982258,40.6357097 C31.4982258,38.627 33.1262903,36.9989355 35.135,36.9989355 Z M3.63677419,26.4996452 C5.64516129,26.4996452 7.27354839,28.1273871 7.27354839,30.1360968 C7.27354839,32.1448065 5.64516129,33.772871 3.63677419,33.772871 C1.6283871,33.772871 1.58983937e-13,32.1448065 1.58983937e-13,30.1360968 C1.58983937e-13,28.1273871 1.6283871,26.4996452 3.63677419,26.4996452 Z M14.1360968,26.4996452 C16.1448065,26.4996452 17.772871,28.1273871 17.772871,30.1360968 C17.772871,32.1448065 16.1448065,33.772871 14.1360968,33.772871 C12.1277097,33.772871 10.4993226,32.1448065 10.4993226,30.1360968 C10.4993226,28.1273871 12.1277097,26.4996452 14.1360968,26.4996452 Z M24.6355484,26.4996452 C26.6442581,26.4996452 28.2723226,28.1273871 28.2723226,30.1360968 C28.2723226,32.1448065 26.6442581,33.772871 24.6355484,33.772871 C22.6271613,33.772871 20.9987742,32.1448065 20.9987742,30.1360968 C20.9987742,28.1273871 22.6271613,26.4996452 24.6355484,26.4996452 Z M35.135,26.4996452 C37.1433871,26.4996452 38.7717742,28.1273871 38.7717742,30.1360968 C38.7717742,32.1448065 37.1433871,33.772871 35.135,33.772871 C33.1262903,33.772871 31.4982258,32.1448065 31.4982258,30.1360968 C31.4982258,28.1273871 33.1262903,26.4996452 35.135,26.4996452 Z M45.6343226,26.4996452 C47.6430323,26.4996452 49.2710968,28.1273871 49.2710968,30.1360968 C49.2710968,32.1448065 47.6430323,33.772871 45.6343226,33.772871 C43.6259355,33.772871 41.9975484,32.1448065 41.9975484,30.1360968 C41.9975484,28.1273871 43.6259355,26.4996452 45.6343226,26.4996452 Z M56.1337742,26.4996452 C58.1424839,26.4996452 59.7705484,28.1273871 59.7705484,30.1360968 C59.7705484,32.1448065 58.1424839,33.772871 56.1337742,33.772871 C54.1253871,33.772871 52.497,32.1448065 52.497,30.1360968 C52.497,28.1273871 54.1253871,26.4996452 56.1337742,26.4996452 Z M3.63677419,16 C5.64516129,16 7.27354839,17.6280645 7.27354839,19.6367742 C7.27354839,21.6454839 5.64516129,23.2735484 3.63677419,23.2735484 C1.6283871,23.2735484 1.58983937e-13,21.6454839 1.58983937e-13,19.6367742 C1.58983937e-13,17.6280645 1.6283871,16 3.63677419,16 Z M14.1360968,16 C16.1448065,16 17.772871,17.6280645 17.772871,19.6367742 C17.772871,21.6454839 16.1448065,23.2735484 14.1360968,23.2735484 C12.1277097,23.2735484 10.4993226,21.6454839 10.4993226,19.6367742 C10.4993226,17.6280645 12.1277097,16 14.1360968,16 Z M24.6355484,16 C26.6442581,16 28.2723226,17.6280645 28.2723226,19.6367742 C28.2723226,21.6454839 26.6442581,23.2735484 24.6355484,23.2735484 C22.6271613,23.2735484 20.9987742,21.6454839 20.9987742,19.6367742 C20.9987742,17.6280645 22.6271613,16 24.6355484,16 Z M35.135,16 C37.1433871,16 38.7717742,17.6280645 38.7717742,19.6367742 C38.7717742,21.6454839 37.1433871,23.2735484 35.135,23.2735484 C33.1262903,23.2735484 31.4982258,21.6454839 31.4982258,19.6367742 C31.4982258,17.6280645 33.1262903,16 35.135,16 Z M45.6343226,16 C47.6430323,16 49.2710968,17.6280645 49.2710968,19.6367742 C49.2710968,21.6454839 47.6430323,23.2735484 45.6343226,23.2735484 C43.6259355,23.2735484 41.9975484,21.6454839 41.9975484,19.6367742 C41.9975484,17.6280645 43.6259355,16 45.6343226,16 Z M56.1337742,16 C58.1424839,16 59.7705484,17.6280645 59.7705484,19.6367742 C59.7705484,21.6454839 58.1424839,23.2735484 56.1337742,23.2735484 C54.1253871,23.2735484 52.497,21.6454839 52.497,19.6367742 C52.497,17.6280645 54.1253871,16 56.1337742,16 Z" id="形状结合" fill="#F6FAFF"></path>
                        <path d="M396.5,225 C417.762963,225 435,242.237037 435,263.5 C435,284.762963 417.762963,302 396.5,302 C375.237037,302 358,284.762963 358,263.5 C358,242.237037 375.237037,225 396.5,225 Z M396.5,238 C382.416739,238 371,249.416739 371,263.5 C371,277.583261 382.416739,289 396.5,289 C410.583261,289 422,277.583261 422,263.5 C422,249.416739 410.583261,238 396.5,238 Z" id="形状结合" fill="#F6FAFF"></path>
                        <g id="编组" transform="translate(47.000000, 0.000000)">
                            <path d="M323.412,161.706 C323.412,251.014 251.014,323.412 161.706,323.412 C72.398,323.412 1.13686838e-13,251.014 1.13686838e-13,161.706 C1.13686838e-13,72.398 72.398,3.41060513e-13 161.706,3.41060513e-13 C251.014,3.41060513e-13 323.412,72.398 323.412,161.706" id="Fill-1" fill="#DFEBFB" opacity="0.2"></path>
                            <path d="M161.7059,32.8857 C232.8519,32.8857 290.5259,90.5607 290.5259,161.7057 C290.5259,232.8517 232.8519,290.5267 161.7059,290.5267 C90.5599,290.5267 32.8859,232.8517 32.8859,161.7057 C32.8859,90.5607 90.5599,32.8857 161.7059,32.8857" id="Fill-3" fill="#DFEBFB" opacity="0.4"></path>
                            <path d="M161.7059,65.7715 C214.6889,65.7715 257.6409,108.7225 257.6409,161.7065 C257.6409,214.6885 214.6889,257.6405 161.7059,257.6405 C108.7229,257.6405 65.7709,214.6885 65.7709,161.7065 C65.7709,108.7225 108.7229,65.7715 161.7059,65.7715" id="Fill-5" fill="#DFEBFB" opacity="0.6"></path>
                            <path d="M161.7059,98.6572 C196.5269,98.6572 224.7549,126.8852 224.7549,161.7062 C224.7549,196.5262 196.5269,224.7552 161.7059,224.7552 C126.8849,224.7552 98.6569,196.5262 98.6569,161.7062 C98.6569,126.8852 126.8849,98.6572 161.7059,98.6572" id="Fill-7" fill="#DFEBFB" opacity="0.8"></path>
                            <path d="M191.869,161.706 C191.869,178.364 178.365,191.869 161.706,191.869 C145.047,191.869 131.543,178.364 131.543,161.706 C131.543,145.047 145.047,131.543 161.706,131.543 C178.365,131.543 191.869,145.047 191.869,161.706" id="Fill-9" fill="#D4E7FF"></path>
                        </g>
                        <g id="编组" filter="url(#filter-1)" transform="translate(73.000000, 12.000000)">
                            <g transform="translate(0.000000, 0.766000)">
                                <path d="M194.0792,151.7871 L76.5862,151.7871 C73.9202,151.7871 71.7592,149.6261 71.7592,146.9601 L71.7592,49.5881 C71.7592,46.9231 73.9202,44.7621 76.5862,44.7621 L194.0792,44.7621 C196.7452,44.7621 198.9062,46.9231 198.9062,49.5881 L198.9062,146.9601 C198.9062,149.6261 196.7452,151.7871 194.0792,151.7871" id="Fill-1" fill="#FFFFFF"></path>
                                <polyline id="Stroke-3" stroke="#0069F5" points="89.1637 76.4297 89.1637 133.0197 188.5457 133.0197"></polyline>
                                <mask id="mask-3" fill="white">
                                    <use xlink:href="#path-2"></use>
                                </mask>
                                <g id="Clip-6"></g>
                                <polygon id="Fill-5" fill="#0069F5" mask="url(#mask-3)" points="95.197 133.02 107.265 133.02 107.265 119.532 95.197 119.532"></polygon>
                                <polygon id="Fill-7" fill="#0069F5" mask="url(#mask-3)" points="114.264 133.02 126.332 133.02 126.332 114.226 114.264 114.226"></polygon>
                                <polygon id="Fill-8" fill="#0069F5" mask="url(#mask-3)" points="133.331 133.02 145.398 133.02 145.398 106.707 133.331 106.707"></polygon>
                                <polygon id="Fill-9" fill="#0069F5" mask="url(#mask-3)" points="152.397 133.02 164.465 133.02 164.465 99.388 152.397 99.388"></polygon>
                                <polygon id="Fill-10" fill="#0069F5" mask="url(#mask-3)" points="171.463 133.02 183.531 133.02 183.531 90.539 171.463 90.539"></polygon>
                                <path d="M89.1637,114.2256 L104.2857,114.2256 C106.5307,114.2256 108.6757,113.2956 110.2107,111.6586 L111.8577,109.9006 C113.3927,108.2616 115.5377,107.3316 117.7837,107.3316 L122.9537,107.3316 C125.3787,107.3316 127.6777,106.2476 129.2197,104.3756 L130.8937,102.3436 C132.4367,100.4716 134.7357,99.3876 137.1617,99.3876 L141.1017,99.3876 C143.7887,99.3876 146.3037,98.0576 147.8147,95.8346 L149.9797,92.6526 C151.4917,90.4296 154.0057,89.0996 156.6937,89.0996 L159.3627,89.0996 C162.4177,89.0996 165.4197,88.3416 168.1027,86.8996 C168.5747,86.6466 169.0167,86.3446 169.4497,86.0316 C171.5967,84.4756 178.9567,79.4286 183.5317,79.8456" id="Stroke-11" stroke="#0069F5" stroke-width="0.5" mask="url(#mask-3)"></path>
                                <path d="M82.1198,86.8838 L82.8928,86.8838 L82.8928,84.2878 L82.2768,84.2878 L82.2768,84.0128 C82.5848,83.9548 82.8078,83.8748 82.9978,83.7658 L83.3298,83.7658 L83.3298,86.8838 L84.0278,86.8838 L84.0278,87.2438 L82.1198,87.2438 L82.1198,86.8838 Z" id="Fill-12" fill="#0069F5" mask="url(#mask-3)"></path>
                                <path d="M86.3131,85.4932 C86.3131,84.4772 86.0471,84.0512 85.6531,84.0512 C85.2541,84.0512 84.9891,84.4772 84.9891,85.4932 C84.9891,86.5182 85.2541,86.9592 85.6531,86.9592 C86.0471,86.9592 86.3131,86.5182 86.3131,85.4932 M84.5661,85.4932 C84.5661,84.2832 84.9891,83.6992 85.6531,83.6992 C86.3131,83.6992 86.7351,84.2882 86.7351,85.4932 C86.7351,86.7032 86.3131,87.3052 85.6531,87.3052 C84.9891,87.3052 84.5661,86.7032 84.5661,85.4932" id="Fill-13" fill="#0069F5" mask="url(#mask-3)"></path>
                                <path d="M84.9015,94.4981 C84.9015,94.1561 84.6835,93.8761 84.3085,93.8761 C83.9905,93.8761 83.7575,94.1031 83.7575,94.4401 C83.7575,94.8581 84.1325,95.0391 84.5405,95.2001 C84.7775,94.9911 84.9015,94.7541 84.9015,94.4981 M84.9825,96.2391 C84.9825,95.7741 84.5555,95.5991 84.0615,95.3991 C83.7815,95.5801 83.5875,95.8551 83.5875,96.1871 C83.5875,96.5581 83.8955,96.8281 84.3135,96.8281 C84.7115,96.8281 84.9825,96.5861 84.9825,96.2391 M83.1935,96.2261 C83.1935,95.7601 83.5155,95.4371 83.8335,95.2671 L83.8335,95.2431 C83.5775,95.0671 83.3635,94.8071 83.3635,94.4401 C83.3635,93.9091 83.7725,93.5591 84.3185,93.5591 C84.9115,93.5591 85.2715,93.9371 85.2715,94.4741 C85.2715,94.8401 85.0155,95.1521 84.8065,95.3141 L84.8065,95.3381 C85.1105,95.5141 85.3955,95.7741 85.3955,96.2491 C85.3955,96.7571 84.9585,97.1501 84.3035,97.1501 C83.6625,97.1501 83.1935,96.7621 83.1935,96.2261" id="Fill-14" fill="#0069F5" mask="url(#mask-3)"></path>
                                <path d="M84.9962,106.1992 C84.9962,105.7292 84.7922,105.4292 84.3702,105.4292 C84.1522,105.4292 83.8862,105.5532 83.6582,105.8762 C83.7102,106.5972 83.9712,106.9912 84.4082,106.9912 C84.7402,106.9912 84.9962,106.6742 84.9962,106.1992 L84.9962,106.1992 Z M85.1052,104.3472 C84.9682,104.1812 84.7592,104.0822 84.5452,104.0822 C84.0712,104.0822 83.6672,104.4482 83.6482,105.5292 C83.8622,105.2682 84.1662,105.1072 84.4412,105.1072 C85.0302,105.1072 85.4042,105.4722 85.4042,106.1992 C85.4042,106.8732 84.9492,107.3282 84.4082,107.3282 C83.7392,107.3282 83.2452,106.7542 83.2452,105.6052 C83.2452,104.2442 83.8572,103.7212 84.5312,103.7212 C84.8922,103.7212 85.1532,103.8742 85.3432,104.0782 L85.1052,104.3472 Z" id="Fill-15" fill="#0069F5" mask="url(#mask-3)"></path>
                                <path d="M84.5885,116.0254 L84.5885,114.9574 C84.5885,114.7864 84.6075,114.5064 84.6165,114.3264 L84.5975,114.3264 C84.5125,114.4974 84.4175,114.6684 84.3175,114.8384 L83.5255,116.0254 L84.5885,116.0254 Z M85.4615,116.3714 L85.0015,116.3714 L85.0015,117.3304 L84.5885,117.3304 L84.5885,116.3714 L83.0745,116.3714 L83.0745,116.0874 L84.5225,113.8514 L85.0015,113.8514 L85.0015,116.0254 L85.4615,116.0254 L85.4615,116.3714 Z" id="Fill-16" fill="#0069F5" mask="url(#mask-3)"></path>
                                <path d="M83.1886,127.3321 C84.2796,126.3781 84.7826,125.6851 84.7826,125.0871 C84.7826,124.6881 84.5736,124.3991 84.1426,124.3991 C83.8576,124.3991 83.6106,124.5741 83.4206,124.8031 L83.1696,124.5561 C83.4546,124.2471 83.7526,124.0431 84.1946,124.0431 C84.8156,124.0431 85.2056,124.4511 85.2056,125.0731 C85.2056,125.7661 84.6596,126.4731 83.8436,127.2461 C84.0236,127.2321 84.2366,127.2131 84.4126,127.2131 L85.3766,127.2131 L85.3766,127.5881 L83.1886,127.5881 L83.1886,127.3321 Z" id="Fill-17" fill="#0069F5" mask="url(#mask-3)"></path>
                                <path d="M198.9064,60.4248 L198.9064,49.5878 C198.9064,46.9228 196.7454,44.7618 194.0794,44.7618 L76.5864,44.7618 C73.9204,44.7618 71.7594,46.9228 71.7594,49.5878 L71.7594,60.4248 L198.9064,60.4248 Z" id="Fill-18" fill="#0069F5" mask="url(#mask-3)"></path>
                                <path d="M86.0485,52.5928 C86.0485,54.2548 84.7015,55.6018 83.0395,55.6018 C81.3785,55.6018 80.0305,54.2548 80.0305,52.5928 C80.0305,50.9318 81.3785,49.5838 83.0395,49.5838 C84.7015,49.5838 86.0485,50.9318 86.0485,52.5928" id="Fill-19" fill="#FFFFFF" mask="url(#mask-3)"></path>
                                <path d="M94.6173,52.5928 C94.6173,54.2548 93.2703,55.6018 91.6083,55.6018 C89.9473,55.6018 88.5993,54.2548 88.5993,52.5928 C88.5993,50.9318 89.9473,49.5838 91.6083,49.5838 C93.2703,49.5838 94.6173,50.9318 94.6173,52.5928" id="Fill-20" fill="#FFFFFF" mask="url(#mask-3)"></path>
                                <path d="M103.1862,52.5928 C103.1862,54.2548 101.8392,55.6018 100.1772,55.6018 C98.5162,55.6018 97.1682,54.2548 97.1682,52.5928 C97.1682,50.9318 98.5162,49.5838 100.1772,49.5838 C101.8392,49.5838 103.1862,50.9318 103.1862,52.5928" id="Fill-21" fill="#FFFFFF" mask="url(#mask-3)"></path>
                                <polyline id="Stroke-22" stroke="#C2DFFF" mask="url(#mask-3)" points="29.5353 152.1553 29.5353 85.6743 68.7593 85.6743"></polyline>
                                <polyline id="Stroke-23" stroke="#C2DFFF" mask="url(#mask-3)" points="240.9156 92.3994 240.9156 61.9864 201.9066 61.9864"></polyline>
                                <line x1="240.9156" y1="165.9619" x2="240.9156" y2="125.9789" id="Stroke-24" stroke="#C2DFFF" mask="url(#mask-3)"></line>
                                <line x1="62.0709" y1="204.9756" x2="81.9499" y2="204.9756" id="Stroke-25" stroke="#C2DFFF" mask="url(#mask-3)"></line>
                                <line x1="123.1442" y1="204.9756" x2="144.4292" y2="204.9756" id="Stroke-26" stroke="#C2DFFF" mask="url(#mask-3)"></line>
                                <line x1="185.6232" y1="204.9756" x2="206.9082" y2="204.9756" id="Stroke-27" stroke="#C2DFFF" mask="url(#mask-3)"></line>
                                <polygon id="Fill-28" fill="#FFFFFF" mask="url(#mask-3)" points="0.5 253.03 58.571 253.03 58.571 155.655 0.5 155.655"></polygon>
                                <path d="M0,253.53 L59.071,253.53 L59.071,155.155 L0,155.155 L0,253.53 Z M1,252.53 L58.071,252.53 L58.071,156.155 L1,156.155 L1,252.53 Z" id="Fill-29" fill="#C2DFFF" mask="url(#mask-3)"></path>
                                <polygon id="Fill-30" fill="#FFFFFF" mask="url(#mask-3)" points="209.908 256.937 271.923 256.937 271.923 168.962 209.908 168.962"></polygon>
                                <polygon id="Fill-34" fill="#DFEBFB" mask="url(#mask-3)" points="7.19 170.029 51.882 170.029 51.882 162.489 7.19 162.489"></polygon>
                                <path d="M6.689,170.529 L52.381,170.529 L52.381,161.989 L6.689,161.989 L6.689,170.529 Z M7.689,169.529 L51.381,169.529 L51.381,162.989 L7.689,162.989 L7.689,169.529 Z" id="Fill-35" fill="#C2DFFF" mask="url(#mask-3)"></path>
                                <polygon id="Fill-36" fill="#DFEBFB" mask="url(#mask-3)" points="7.19 182.724 51.882 182.724 51.882 175.184 7.19 175.184"></polygon>
                                <path d="M6.689,183.224 L52.381,183.224 L52.381,174.684 L6.689,174.684 L6.689,183.224 Z M7.689,182.224 L51.381,182.224 L51.381,175.684 L7.689,175.684 L7.689,182.224 Z" id="Fill-37" fill="#C2DFFF" mask="url(#mask-3)"></path>
                                <polygon id="Fill-38" fill="#DFEBFB" mask="url(#mask-3)" points="7.19 195.418 51.882 195.418 51.882 187.878 7.19 187.878"></polygon>
                                <path d="M6.689,195.918 L52.381,195.918 L52.381,187.378 L6.689,187.378 L6.689,195.918 Z M7.689,194.918 L51.381,194.918 L51.381,188.378 L7.689,188.378 L7.689,194.918 Z" id="Fill-39" fill="#C2DFFF" mask="url(#mask-3)"></path>
                                <polygon id="Fill-40" fill="#DFEBFB" mask="url(#mask-3)" points="7.19 208.113 51.882 208.113 51.882 200.572 7.19 200.572"></polygon>
                                <path d="M6.689,208.613 L52.381,208.613 L52.381,200.072 L6.689,200.072 L6.689,208.613 Z M7.689,207.613 L51.381,207.613 L51.381,201.072 L7.689,201.072 L7.689,207.613 Z" id="Fill-41" fill="#C2DFFF" mask="url(#mask-3)"></path>
                                <polygon id="Fill-42" fill="#DFEBFB" mask="url(#mask-3)" points="7.19 220.808 51.882 220.808 51.882 213.268 7.19 213.268"></polygon>
                                <path d="M6.689,221.308 L52.381,221.308 L52.381,212.768 L6.689,212.768 L6.689,221.308 Z M7.689,220.308 L51.381,220.308 L51.381,213.768 L7.689,213.768 L7.689,220.308 Z" id="Fill-43" fill="#C2DFFF" mask="url(#mask-3)"></path>
                                <polygon id="Fill-44" fill="#DFEBFB" mask="url(#mask-3)" points="7.19 233.502 51.882 233.502 51.882 225.962 7.19 225.962"></polygon>
                                <path d="M6.689,234.002 L52.381,234.002 L52.381,225.462 L6.689,225.462 L6.689,234.002 Z M7.689,233.002 L51.381,233.002 L51.381,226.462 L7.689,226.462 L7.689,233.002 Z" id="Fill-45" fill="#C2DFFF" mask="url(#mask-3)"></path>
                                <polygon id="Fill-46" fill="#DFEBFB" mask="url(#mask-3)" points="7.19 246.196 51.882 246.196 51.882 238.656 7.19 238.656"></polygon>
                                <path d="M6.689,246.696 L52.381,246.696 L52.381,238.156 L6.689,238.156 L6.689,246.696 Z M7.689,245.696 L51.381,245.696 L51.381,239.156 L7.689,239.156 L7.689,245.696 Z" id="Fill-47" fill="#C2DFFF" mask="url(#mask-3)"></path>
                                <path d="M116.9357,222.5723 L88.1587,222.5723 C86.3867,222.5723 84.9497,221.1353 84.9497,219.3643 L84.9497,190.5873 C84.9497,188.8143 86.3867,187.3783 88.1587,187.3783 L116.9357,187.3783 C118.7077,187.3783 120.1437,188.8143 120.1437,190.5873 L120.1437,219.3643 C120.1437,221.1353 118.7077,222.5723 116.9357,222.5723" id="Fill-48" fill="#FFFFFF" mask="url(#mask-3)"></path>
                                <path d="M179.4147,222.5723 L150.6377,222.5723 C148.8657,222.5723 147.4287,221.1353 147.4287,219.3643 L147.4287,190.5873 C147.4287,188.8143 148.8657,187.3783 150.6377,187.3783 L179.4147,187.3783 C181.1867,187.3783 182.6227,188.8143 182.6227,190.5873 L182.6227,219.3643 C182.6227,221.1353 181.1867,222.5723 179.4147,222.5723" id="Fill-49" fill="#FFFFFF" mask="url(#mask-3)"></path>
                                <path d="M92.2076,211.1465 L112.8866,211.1465 L112.8866,199.3275 L103.6976,205.2845 C103.0036,205.7395 102.0976,205.7415 101.3906,205.2865 L92.2076,199.3275 L92.2076,211.1465 Z M113.5106,212.3935 L91.5836,212.3935 C91.2396,212.3935 90.9606,212.1155 90.9606,211.7705 L90.9606,198.1805 C90.9606,197.9515 91.0856,197.7425 91.2866,197.6325 C91.4866,197.5245 91.7316,197.5335 91.9226,197.6575 L102.0676,204.2385 C102.3586,204.4265 102.7316,204.4275 103.0156,204.2395 L113.1706,197.6575 C113.3636,197.5345 113.6076,197.5245 113.8086,197.6325 C114.0086,197.7425 114.1336,197.9515 114.1336,198.1805 L114.1336,211.7705 C114.1336,212.1155 113.8546,212.3935 113.5106,212.3935 L113.5106,212.3935 Z" id="Fill-50" fill="#2B75EB" mask="url(#mask-3)"></path>
                                <path d="M93.691,198.8037 L102.067,204.2387 C102.358,204.4267 102.732,204.4277 103.016,204.2397 L111.401,198.8037 L93.691,198.8037 Z M102.546,205.6257 C102.146,205.6257 101.743,205.5127 101.39,205.2857 L91.245,198.7027 C91.013,198.5537 90.908,198.2687 90.986,198.0037 C91.065,197.7387 91.308,197.5567 91.584,197.5567 L113.51,197.5567 C113.786,197.5567 114.03,197.7387 114.108,198.0037 C114.186,198.2687 114.081,198.5537 113.849,198.7037 L103.697,205.2837 C103.35,205.5117 102.949,205.6257 102.546,205.6257 L102.546,205.6257 Z" id="Fill-51" fill="#2B75EB" mask="url(#mask-3)"></path>
                                <polygon id="Fill-52" fill="#2B75EB" mask="url(#mask-3)" points="113.0988 212.2393 104.1928 204.4203 105.0158 203.4823 113.9218 211.3023"></polygon>
                                <polygon id="Fill-53" fill="#2B75EB" mask="url(#mask-3)" points="91.9952 212.2383 91.1722 211.3023 100.0702 203.4833 100.8922 204.4193"></polygon>
                                <path d="M154.8463,198.9307 C154.3573,198.9307 153.9593,199.3287 153.9593,199.8177 L153.9593,208.0397 C153.9593,208.5297 154.3573,208.9277 154.8463,208.9277 L162.1293,208.9277 L165.0263,211.8547 L167.9233,208.9277 L175.2053,208.9277 C175.6953,208.9277 176.0933,208.5297 176.0933,208.0397 L176.0933,199.8177 C176.0933,199.3287 175.6953,198.9307 175.2053,198.9307 L154.8463,198.9307 Z M165.0263,213.4287 L161.6673,210.0347 L154.8463,210.0347 C153.7463,210.0347 152.8513,209.1407 152.8513,208.0397 L152.8513,199.8177 C152.8513,198.7177 153.7463,197.8237 154.8463,197.8237 L175.2053,197.8237 C176.3053,197.8237 177.2003,198.7177 177.2003,199.8177 L177.2003,208.0397 C177.2003,209.1407 176.3053,210.0347 175.2053,210.0347 L168.3853,210.0347 L165.0263,213.4287 Z" id="Fill-54" fill="#2B75EB" mask="url(#mask-3)"></path>
                                <polygon id="Fill-55" fill="#2B75EB" mask="url(#mask-3)" points="157.082 202.513 172.971 202.513 172.971 201.406 157.082 201.406"></polygon>
                                <polygon id="Fill-56" fill="#2B75EB" mask="url(#mask-3)" points="159.628 205.558 170.425 205.558 170.425 204.451 159.628 204.451"></polygon>
                                <path d="M67.276,257 L50.866,257 C49.093,257 47.657,255.563 47.657,253.791 L47.657,237.381 C47.657,235.608 49.093,234.172 50.866,234.172 L67.276,234.172 C69.048,234.172 70.485,235.608 70.485,237.381 L70.485,253.791 C70.485,255.563 69.048,257 67.276,257" id="Fill-57" fill="#A0CEFF" mask="url(#mask-3)"></path>
                                <path d="M59.0709,239.5918 C55.7659,239.5918 53.0769,242.2808 53.0769,245.5858 C53.0769,248.8918 55.7659,251.5798 59.0709,251.5798 C62.3759,251.5798 65.0649,248.8918 65.0649,245.5858 C65.0649,242.2808 62.3759,239.5918 59.0709,239.5918 M59.0709,252.2278 C55.4089,252.2278 52.4289,249.2478 52.4289,245.5858 C52.4289,241.9238 55.4089,238.9448 59.0709,238.9448 C62.7329,238.9448 65.7129,241.9238 65.7129,245.5858 C65.7129,249.2478 62.7329,252.2278 59.0709,252.2278" id="Fill-58" fill="#FFFFFF" mask="url(#mask-3)"></path>
                                <path d="M61.381,245.586 C61.381,246.862 60.347,247.897 59.071,247.897 C57.795,247.897 56.761,246.862 56.761,245.586 C56.761,244.311 57.795,243.276 59.071,243.276 C60.347,243.276 61.381,244.311 61.381,245.586" id="Fill-59" fill="#FFFFFF" mask="url(#mask-3)"></path>
                                <path d="M59.0709,241.0401 C58.8919,241.0401 58.7469,240.8951 58.7469,240.7171 L58.7469,237.8191 C58.7469,237.6411 58.8919,237.4961 59.0709,237.4961 C59.2499,237.4961 59.3949,237.6411 59.3949,237.8191 L59.3949,240.7171 C59.3949,240.8951 59.2499,241.0401 59.0709,241.0401" id="Fill-60" fill="#FFFFFF" mask="url(#mask-3)"></path>
                                <path d="M59.0709,253.6758 C58.8919,253.6758 58.7469,253.5308 58.7469,253.3528 L58.7469,250.4558 C58.7469,250.2768 58.8919,250.1318 59.0709,250.1318 C59.2499,250.1318 59.3949,250.2768 59.3949,250.4558 L59.3949,253.3528 C59.3949,253.5308 59.2499,253.6758 59.0709,253.6758" id="Fill-61" fill="#FFFFFF" mask="url(#mask-3)"></path>
                                <path d="M66.8375,245.9102 L63.9405,245.9102 C63.7615,245.9102 63.6165,245.7642 63.6165,245.5862 C63.6165,245.4072 63.7615,245.2632 63.9405,245.2632 L66.8375,245.2632 C67.0165,245.2632 67.1615,245.4072 67.1615,245.5862 C67.1615,245.7642 67.0165,245.9102 66.8375,245.9102" id="Fill-62" fill="#FFFFFF" mask="url(#mask-3)"></path>
                                <path d="M54.2013,245.9102 L51.3043,245.9102 C51.1253,245.9102 50.9803,245.7642 50.9803,245.5862 C50.9803,245.4072 51.1253,245.2632 51.3043,245.2632 L54.2013,245.2632 C54.3803,245.2632 54.5253,245.4072 54.5253,245.5862 C54.5253,245.7642 54.3803,245.9102 54.2013,245.9102" id="Fill-63" fill="#FFFFFF" mask="url(#mask-3)"></path>
                                <path d="M257.0314,122.9785 L224.8004,122.9785 C223.6904,122.9785 222.7914,122.0795 222.7914,120.9695 L222.7914,97.4085 C222.7914,96.2985 223.6904,95.3995 224.8004,95.3995 L257.0314,95.3995 C258.1404,95.3995 259.0394,96.2985 259.0394,97.4085 L259.0394,120.9695 C259.0394,122.0795 258.1404,122.9785 257.0314,122.9785" id="Fill-64" fill="#C2DFFF" mask="url(#mask-3)"></path>
                                <polygon id="Fill-65" fill="#FFFFFF" mask="url(#mask-3)" points="227.1559 122.9785 236.4339 109.9495 245.0879 122.9785"></polygon>
                                <polygon id="Fill-66" fill="#FFFFFF" mask="url(#mask-3)" points="256.4176 122.9785 245.5336 104.0145 239.0746 115.6215 242.5006 122.9785"></polygon>
                                <path d="M231.567,102.3272 C231.567,103.2592 230.812,104.0142 229.88,104.0142 C228.947,104.0142 228.192,103.2592 228.192,102.3272 C228.192,101.3952 228.947,100.6402 229.88,100.6402 C230.812,100.6402 231.567,101.3952 231.567,102.3272" id="Fill-67" fill="#FFFFFF" mask="url(#mask-3)"></path>
                                <polygon id="Fill-68" fill="#A0CEFF" mask="url(#mask-3)" points="240.789 180.074 241.043 180.074 241.043 176.8 240.789 176.8"></polygon>
                                <polygon id="Fill-69" fill="#A0CEFF" mask="url(#mask-3)" points="241.8585 177.5147 240.9155 177.1147 239.9725 177.5147 240.9155 175.2807"></polygon>
                                <polygon id="Fill-70" fill="#A0CEFF" mask="url(#mask-3)" points="233.4147 183.2344 231.0997 180.9194 231.2787 180.7384 233.5947 183.0534"></polygon>
                                <polygon id="Fill-71" fill="#A0CEFF" mask="url(#mask-3)" points="232.3615 180.668 231.4115 181.051 231.0285 182.001 230.1145 179.754"></polygon>
                                <polygon id="Fill-72" fill="#A0CEFF" mask="url(#mask-3)" points="227.16 190.683 230.435 190.683 230.435 190.428 227.16 190.428"></polygon>
                                <polygon id="Fill-73" fill="#A0CEFF" mask="url(#mask-3)" points="227.8756 189.6123 227.4746 190.5543 227.8756 191.4983 225.6406 190.5543"></polygon>
                                <polygon id="Fill-74" fill="#A0CEFF" mask="url(#mask-3)" points="231.2789 200.3711 231.0989 200.1911 233.4149 197.8761 233.5949 198.0561"></polygon>
                                <polygon id="Fill-75" fill="#A0CEFF" mask="url(#mask-3)" points="231.028 199.1084 231.412 200.0584 232.361 200.4424 230.114 201.3554"></polygon>
                                <polygon id="Fill-76" fill="#A0CEFF" mask="url(#mask-3)" points="240.789 204.31 241.043 204.31 241.043 201.036 240.789 201.036"></polygon>
                                <polygon id="Fill-77" fill="#A0CEFF" mask="url(#mask-3)" points="239.9728 203.5948 240.9158 203.9948 241.8588 203.5948 240.9158 205.8298"></polygon>
                                <polygon id="Fill-78" fill="#A0CEFF" mask="url(#mask-3)" points="250.5519 200.3711 248.2369 198.0561 248.4159 197.8761 250.7319 200.1911"></polygon>
                                <polygon id="Fill-79" fill="#A0CEFF" mask="url(#mask-3)" points="249.4694 200.4424 250.4194 200.0584 250.8024 199.1084 251.7164 201.3554"></polygon>
                                <polygon id="Fill-80" fill="#A0CEFF" mask="url(#mask-3)" points="251.397 190.683 254.671 190.683 254.671 190.428 251.397 190.428"></polygon>
                                <polygon id="Fill-81" fill="#A0CEFF" mask="url(#mask-3)" points="253.9557 191.4981 254.3557 190.5551 253.9557 189.6121 256.1907 190.5551"></polygon>
                                <polygon id="Fill-82" fill="#A0CEFF" mask="url(#mask-3)" points="248.4161 183.2344 248.2361 183.0534 250.5521 180.7384 250.7311 180.9194"></polygon>
                                <polygon id="Fill-83" fill="#A0CEFF" mask="url(#mask-3)" points="250.8029 182.001 250.4199 181.051 249.4699 180.668 251.7169 179.754"></polygon>
                                <path d="M249.6847,190.5547 C249.6847,195.3977 245.7587,199.3247 240.9157,199.3247 C236.0727,199.3247 232.1457,195.3977 232.1457,190.5547 C232.1457,185.7117 236.0727,181.7857 240.9157,181.7857 C245.7587,181.7857 249.6847,185.7117 249.6847,190.5547" id="Fill-84" fill="#A0CEFF" mask="url(#mask-3)"></path>
                                <path d="M244.1696,187.4063 C244.1696,189.2033 242.7126,190.6603 240.9156,190.6603 C239.1186,190.6603 237.6616,189.2033 237.6616,187.4063 C237.6616,185.6083 239.1186,184.1513 240.9156,184.1513 C242.7126,184.1513 244.1696,185.6083 244.1696,187.4063" id="Fill-85" fill="#0069F5" mask="url(#mask-3)"></path>
                                <path d="M240.9156,198.8926 C243.6566,198.8926 246.0886,197.5696 247.6086,195.5266 C246.4996,193.4296 243.9206,191.9596 240.9156,191.9596 C237.9106,191.9596 235.3316,193.4296 234.2226,195.5266 C235.7416,197.5696 238.1736,198.8926 240.9156,198.8926" id="Fill-86" fill="#0069F5" mask="url(#mask-3)"></path>
                                <line x1="219.1896" y1="213.0039" x2="262.6416" y2="213.0039" id="Stroke-87" stroke="#2B75EB" stroke-width="0.75" mask="url(#mask-3)"></line>
                                <line x1="219.1896" y1="221.4453" x2="262.6416" y2="221.4453" id="Stroke-88" stroke="#2B75EB" stroke-width="0.75" mask="url(#mask-3)"></line>
                                <line x1="219.1896" y1="229.6114" x2="262.6416" y2="229.6114" id="Stroke-89" stroke="#2B75EB" stroke-width="0.75" mask="url(#mask-3)"></line>
                                <line x1="219.1896" y1="237.7774" x2="262.6416" y2="237.7774" id="Stroke-90" stroke="#2B75EB" stroke-width="0.75" mask="url(#mask-3)"></line>
                                <line x1="219.1896" y1="245.9434" x2="256.1906" y2="245.9434" id="Stroke-91" stroke="#2B75EB" stroke-width="0.75" mask="url(#mask-3)"></line>
                            </g>
                        </g>
                    </g>
                </g>
            </g>
        </g>
    </g>
</svg>